:SAMPLES-PER-SECOND 30
:FULLY-SPECIFIED
:DEGREES
117
root  -7.80974 39.0066 14.3057 179.065 45.4681 175.848
RightUpLeg  -19.8978 -11.6371 -12.5289
RightLeg  16.0806 -8.37253 -2.90046
RightFoot  4.08542 -2.8254 20.8525
RightToes  -1.39699e-009 0 -3.6325e-017
Spine  6.41084 -0.5797 -8.53966
Spine1  21.5887 -2.0753 2.07392
HEad  -15.3315 35.1104 -14.2594
LeftShoulder1  1.25116 -1.72616 -17.2562
LeftArm  15.4686 9.70381 -45.6758
LeftForeArm  31.9497 -75.5183 -47.8211
LeftHand  -0.292048 2.94877 13.558
RightShoulder  0.637729 -0.275186 12.8243
RightArm  7.95285 -19.7157 52.7451
RightForeArm  132.057 73.629 140.884
RightHand  -0.36602 1.71569 -6.14521
LeftUpLeg  -3.54936 3.37723 -0.213236
LeftLeg  21.7156 1.58871 1.03928
LeftFoot  -16.0871 -0.319802 -10.0176
LeftToes  3.40148e-010 1.80944e-010 1.01921e-010
118
root  -7.48824 39.0899 14.2977 179.485 45.3439 176.116
RightUpLeg  -19.2465 -11.6886 -11.6852
RightLeg  14.4959 -8.63504 -2.64577
RightFoot  5.60274 -3.18953 21.4609
RightToes  -1.39699e-009 0 -3.6325e-017
Spine  6.03816 -0.76686 -8.60915
Spine1  21.6172 -2.33262 2.30643
HEad  -14.8836 35.6353 -13.9953
LeftShoulder1  1.18667 -1.56582 -16.6963
LeftArm  16.9713 10.1889 -45.1008
LeftForeArm  34.3711 -76.0285 -50.2777
LeftHand  -0.300685 2.63593 12.3946
RightShoulder  0.612435 -0.348317 12.4427
RightArm  8.20553 -20.1008 52.1252
RightForeArm  131.661 73.1344 142.008
RightHand  -0.339921 1.32331 -6.01508
LeftUpLeg  -3.40736 3.40512 0.407659
LeftLeg  21.5463 1.38138 0.94219
LeftFoot  -15.2928 -0.275535 -10.6159
LeftToes  3.40148e-010 1.80944e-010 1.01921e-010
119
root  -7.11558 39.1172 14.3133 179.637 45.4702 176.371
RightUpLeg  -18.8472 -12.148 -10.52
RightLeg  14.9911 -7.6684 -2.37389
RightFoot  4.87044 -2.80897 19.7404
RightToes  -1.39699e-009 0 -3.6325e-017
Spine  5.931 -0.769801 -8.63711
Spine1  21.6508 -2.46588 2.65912
HEad  -14.7894 36.2844 -13.8681
LeftShoulder1  1.11904 -1.35538 -16.2831
LeftArm  17.7102 10.4276 -44.799
LeftForeArm  36.261 -76.3991 -52.2943
LeftHand  -0.308623 2.48641 12.0925
RightShoulder  0.581617 -0.452907 12.0627
RightArm  8.47713 -19.8763 51.7617
RightForeArm  131.298 72.9175 142.447
RightHand  -0.293045 0.963208 -5.46971
LeftUpLeg  -3.16131 3.35447 1.09782
LeftLeg  21.8777 1.38098 0.951574
LeftFoot  -14.8338 -0.264256 -11.5406
LeftToes  3.40148e-010 1.80944e-010 1.01921e-010
120
root  -6.70166 39.0737 14.3476 179.538 45.8728 176.587
RightUpLeg  -18.7148 -12.3642 -9.31958
RightLeg  16.6096 -6.39051 -2.25592
RightFoot  2.99415 -2.01973 16.1168
RightToes  -1.39699e-009 0 -3.6325e-017
Spine  6.19064 -0.647864 -8.49088
Spine1  21.5009 -2.43311 2.89881
HEad  -15.0864 36.9766 -13.9453
LeftShoulder1  1.04572 -1.09665 -15.9564
LeftArm  17.5396 10.6272 -44.8678
LeftForeArm  37.0682 -76.5379 -53.0854
LeftHand  -0.321708 2.31513 11.9393
RightShoulder  0.565618 -0.503387 11.8273
RightArm  8.77828 -19.2579 51.613
RightForeArm  131.492 72.9384 142.431
RightHand  -0.265315 0.889767 -5.01481
LeftUpLeg  -2.94707 3.2263 1.81902
LeftLeg  22.9431 1.67721 1.12194
LeftFoot  -14.8385 -0.298864 -12.6389
LeftToes  3.40148e-010 1.80944e-010 1.01921e-010
121
root  -6.26861 38.9185 14.4064 179.524 46.5066 177.01
RightUpLeg  -19.0954 -11.3807 -8.29835
RightLeg  18.9172 -6.2768 -2.60035
RightFoot  1.22129 -1.46225 13.3289
RightToes  -1.39699e-009 0 -3.6325e-017
Spine  6.84503 -0.466192 -7.95344
Spine1  20.9651 -2.23447 2.9294
HEad  -15.5942 37.5001 -14.1939
LeftShoulder1  0.993285 -0.897383 -15.7794
LeftArm  16.4332 10.8804 -45.2589
LeftForeArm  36.783 -76.4717 -52.6606
LeftHand  -0.349118 2.05569 11.9967
RightShoulder  0.571936 -0.457728 11.7409
RightArm  9.05034 -18.4952 51.7005
RightForeArm  131.91 72.9981 142.364
RightHand  -0.272497 0.996851 -5.06872
LeftUpLeg  -3.37675 3.43071 2.84407
LeftLeg  25.6248 1.60372 1.17847
LeftFoot  -15.2991 -0.389608 -13.8395
LeftToes  3.40148e-010 1.80944e-010 1.01921e-010
